<svg id="Layer_1" data-name="Layer 1" xmlns="http://www.w3.org/2000/svg" viewBox="0 0 565.31 102.06"><defs><style>.cls-1{fill:#fff;}</style></defs><path class="cls-1" d="M413.92,60.26a2,2,0,0,1,2,2V65.2a62.7,62.7,0,0,0-12.39,17.89l-.13.31h-21a2,2,0,0,0-2,2V95.7a2,2,0,0,0,2,2h16.52v.13a62.32,62.32,0,0,0-1,11.09,63.22,63.22,0,0,0,.92,10.72H382.4a2,2,0,0,0-2,2V132.2a2,2,0,0,0,2,2l20.9,0a62.19,62.19,0,0,0,13.79,19.56v1.61a2,2,0,0,1-2,2H352.64a2,2,0,0,1-2-2V62.26a2,2,0,0,1,2-2Z" transform="translate(-23.29 -57.81)"/><path class="cls-1" d="M188,149.9a58.32,58.32,0,0,0,0-85.5V62.26a2,2,0,0,1,2-2h19.42a4.44,4.44,0,0,1,3.18,1.62l34.94,47.74c.65.88,1.18.71,1.18-.39V95c0-1.1.56-1.29,1.23-.42l23.49,30.43a6.9,6.9,0,0,1,1.22,3.59v26.77a2,2,0,0,1-2,2H254.53a4.45,4.45,0,0,1-3.19-1.61l-36.23-49.49c-.65-.89-1.18-.72-1.18.38v48.72a2,2,0,0,1-2,2H190a2,2,0,0,1-2-2Z" transform="translate(-23.29 -57.81)"/><path class="cls-1" d="M333.9,60.26a2,2,0,0,1,2,2v93.15a2,2,0,0,1-2,2H315.77a4.52,4.52,0,0,1-3.2-1.6l-62.13-83a7,7,0,0,1-1.2-3.6v-7a2,2,0,0,1,2-2h19.42a4.44,4.44,0,0,1,3.18,1.62l35,47.74c.65.88,1.18.71,1.18-.39v-47a2,2,0,0,1,2-2Z" transform="translate(-23.29 -57.81)"/><path class="cls-1" d="M180.85,73.33a51.61,51.61,0,0,0-16-10.36A51.6,51.6,0,0,0,126,63a51.66,51.66,0,0,0-16,10.36c-.14.13-.27.27-.4.4A49.33,49.33,0,0,0,99,88.62a43.3,43.3,0,0,0-2.39,6.56A45.38,45.38,0,0,0,95,107.36a63.75,63.75,0,0,0,1.22,10.21,6.37,6.37,0,0,1-.56,3.72A19.75,19.75,0,0,1,87.18,129c-4.24,1.92-8.5,3.63-13.6,3.63a25.81,25.81,0,0,1-10-2,26.64,26.64,0,0,1-8.2-5.36,25,25,0,0,1,0-35.82,26.61,26.61,0,0,1,8.2-5.35,25.63,25.63,0,0,1,10-2,35.13,35.13,0,0,1,8.29,1.38c1.06.32,2.19.16,2.52-.34s1.66-2.6,2.16-3.58c0,0,1.64-3.25,2.81-5.28,1.75-3,5.56-8.31,5.56-8.31a1.54,1.54,0,0,0-.66-2.42,69.25,69.25,0,0,0-6.65-2.45A51.27,51.27,0,0,0,54.2,63a51.61,51.61,0,0,0-16,10.36A49.35,49.35,0,0,0,27.29,88.62a45.9,45.9,0,0,0,0,37.48,49.51,49.51,0,0,0,10.88,15.3,51.77,51.77,0,0,0,16,10.35,50,50,0,0,0,19.38,3.81,50.54,50.54,0,0,0,14.09-2,52.86,52.86,0,0,0,12.63-5.47,67.82,67.82,0,0,0,7.7-5.81c.83-.73,2.14-2,2.91-2.74l12.65-15.1a2.84,2.84,0,0,0,.17-3.2,27.64,27.64,0,0,1-2.16-4,25,25,0,0,1,5.53-27.79,26.5,26.5,0,0,1,8.2-5.35,25.62,25.62,0,0,1,10-2,25.88,25.88,0,0,1,18.28,7.32,25,25,0,0,1,5.47,8,25.29,25.29,0,0,1,0,19.76,25,25,0,0,1-5.47,8,25.74,25.74,0,0,1-8.13,5.36,26.12,26.12,0,0,1-10.15,2,32.48,32.48,0,0,1-6.94-1c-1.07-.28-2.12-.27-2.34,0l-.3.22c-2,1.47-3.52,3.77-5,5.66-2.12,2.68-4.21,5.41-6.54,7.92-1.11,1.19-2.32,2.3-2.32,2.3a1.32,1.32,0,0,0,.31,2.28s1.85,1,3.78,1.77a51.47,51.47,0,0,0,38.87,0,51.77,51.77,0,0,0,16-10.35,48.69,48.69,0,0,0,10.82-15.3,46.54,46.54,0,0,0,0-37.48A48.53,48.53,0,0,0,180.85,73.33Z" transform="translate(-23.29 -57.81)"/><path class="cls-1" d="M462.11,159.87c-29.57,0-51.66-21.89-51.66-50.95,0-29.22,22.09-51.11,51.66-51.11,25.18,0,44.75,16.15,49,40.35,0,.26.17,1.09-1,1.09h-25a1,1,0,0,1-1.24-.86c-1.88-9.46-11.72-15.58-21.65-15.58-13.76,0-23.85,11.06-23.85,26.11s10.09,25.89,23.85,25.89c10.56,0,18.91-6.41,21.8-16.84a1.06,1.06,0,0,1,1.14-1h25.28c1.13,0,1,.77,1,1.06-4,25.08-23.69,41.83-49.28,41.83Z" transform="translate(-23.29 -57.81)"/><path class="cls-1" d="M518.52,84.32a1.62,1.62,0,0,1-1.71-1.24,46.83,46.83,0,0,0-14.95-21.73c-.28-.22-1.42-1.09.24-1.09h84.5a2,2,0,0,1,2,2v20.1a2,2,0,0,1-2,2h-28a2,2,0,0,0-2,2v69.05a2,2,0,0,1-2,2H531.67a2,2,0,0,1-2-2v-69a2,2,0,0,0-2-2h-8.85Z" transform="translate(-23.29 -57.81)"/></svg>